<?xml version="1.0" encoding="utf-8"?>
<!-- Generator: Adobe Illustrator 19.2.1, SVG Export Plug-In . SVG Version: 6.00 Build 0)  -->
<svg version="1.1" id="Layer_1" xmlns="http://www.w3.org/2000/svg" xmlns:xlink="http://www.w3.org/1999/xlink" x="0px" y="0px"
	 width="24px" height="24px" viewBox="0 0 24 24" style="enable-background:new 0 0 24 24;" xml:space="preserve">
<style type="text/css">
	.st0{fill:#43B02A;}
</style>
<path class="st0" d="M16,13c2.3,0,7,1.2,7,3.5V19h-6v-2.5c0-1.5-0.8-2.6-2-3.5C15.4,13,15.7,13,16,13z M8,13c2.3,0,7,1.2,7,3.5V19H1
	v-2.5C1,14.2,5.7,13,8,13L8,13z M8,11c-1.6,0-3-1.4-3-3s1.4-3,3-3s3,1.4,3,3S9.7,11,8,11z M16,11c-1.6,0-3-1.4-3-3s1.4-3,3-3
	s3,1.4,3,3S17.6,11,16,11z"/>
</svg>
