<?xml version="1.0" encoding="utf-8"?>
<!-- Generator: Adobe Illustrator 19.2.1, SVG Export Plug-In . SVG Version: 6.00 Build 0)  -->
<svg version="1.1" id="Layer_1" xmlns="http://www.w3.org/2000/svg" xmlns:xlink="http://www.w3.org/1999/xlink" x="0px" y="0px"
	 width="24px" height="24px" viewBox="0 0 24 24" style="enable-background:new 0 0 24 24;" xml:space="preserve">
<style type="text/css">
	.st0{fill:#BA0C2F;}
</style>
<path class="st0" d="M15.5,4H19v2H5V4h3.5l1-1h5L15.5,4z M8.4,11.9l2.2,2.2l-2.1,2.1l1.4,1.4l2.1-2.1l2.1,2.1l1.4-1.4L13.4,14
	l2.1-2.2l-1.4-1.4L12,12.6l-2.1-2.2L8.4,11.9z M6,19V7h12v12c0,1.1-0.9,2-2,2H8C6.9,21,6,20.1,6,19L6,19z"/>
</svg>
