<?xml version="1.0" encoding="UTF-8" standalone="no"?>
<svg xmlns="http://www.w3.org/2000/svg" viewBox="0 0 24 24">
    <path d="M4.354,2.354c-0.094,-0.094 -0.221,-0.147 -0.354,-0.147c-0.133,0 -0.26,0.053 -0.354,0.147c-0.364,0.364 -0.928,0.928 -1.292,1.292c-0.094,0.094 -0.147,0.221 -0.147,0.354c0,0.133 0.053,0.26 0.147,0.354c1.547,1.547 7.646,7.646 7.646,7.646c0,0 -6.099,6.099 -7.646,7.646c-0.094,0.094 -0.147,0.221 -0.147,0.354c0,0.133 0.053,0.26 0.147,0.354c0.364,0.364 0.928,0.928 1.292,1.292c0.094,0.094 0.221,0.147 0.354,0.147c0.133,-0 0.26,-0.053 0.354,-0.147c1.547,-1.547 7.646,-7.646 7.646,-7.646c0,0 6.099,6.099 7.646,7.646c0.094,0.094 0.221,0.147 0.354,0.147c0.133,-0 0.26,-0.053 0.354,-0.147c0.364,-0.364 0.928,-0.928 1.292,-1.292c0.094,-0.094 0.147,-0.221 0.147,-0.354c-0,-0.133 -0.053,-0.26 -0.147,-0.354c-1.547,-1.547 -7.646,-7.646 -7.646,-7.646c0,0 6.11,-6.11 7.65,-7.65c0.194,-0.194 0.196,-0.508 0.004,-0.703c-0.363,-0.372 -0.933,-0.955 -1.299,-1.331c-0.094,-0.095 -0.222,-0.149 -0.356,-0.15c-0.134,-0.001 -0.262,0.053 -0.357,0.147c-1.554,1.563 -7.642,7.687 -7.642,7.687c0,0 -6.099,-6.099 -7.646,-7.646Z" fill="#FFFFFF"/>
</svg>
