<?xml version="1.0" encoding="UTF-8" standalone="no"?>
<!--
 Retrieved from: https://fontawesome.com/v5.15/icons/file-import
 License: https://fontawesome.com/license
 Modifications: scaled to 20x20px with additional 2px margin on all sides
-->
<svg xmlns="http://www.w3.org/2000/svg" viewBox="0 0 24 24">
  <path d="M 2.625,13.25 C 2.28125,13.25 2,13.53125 2,13.875 v 1.25 c 0,0.34375 0.28125,0.625 0.625,0.625 H 7 v -2.5 z M 21.72656,6.10156 17.90234,2.27344 C 17.72656,2.09766 17.48828,2 17.23828,2 H 17 v 5 h 5 V 6.76172 C 22,6.51562 21.9023,6.27734 21.72656,6.10156 Z M 15.75,7.3125 V 2 H 7.9375 C 7.41797,2 7,2.41797 7,2.9375 V 13.25 h 5 v -2.54688 c 0,-0.55859 0.67578,-0.83593 1.07031,-0.4414 l 3.73438,3.76953 c 0.25781,0.26172 0.25781,0.67969 0,0.9375 l -3.73828,3.76562 c -0.39454,0.39454 -1.07032,0.11719 -1.07032,-0.4414 V 15.75 H 7 v 5.3125 C 7,21.58203 7.41797,22 7.9375,22 h 13.125 C 21.58203,22 22,21.58203 22,21.0625 V 8.25 H 16.6875 C 16.17187,8.25 15.75,7.82812 15.75,7.3125 Z" fill="#000000" />
</svg>
