<?xml version="1.0" encoding="UTF-8" standalone="no"?>
<!--
 Retrieved from: https://fontawesome.com/v5.15/icons/upload
 License: https://fontawesome.com/license
 Modifications: scaled to 20x20px with additional 2px margin on all sides
-->
<svg xmlns="http://www.w3.org/2000/svg" viewBox="0 0 24 24">
  <path d="m 13.5625,16.997077 h -3.125 c -0.51953,0 -0.9375,-0.41797 -0.9375,-0.9375 V 9.4970775 H 6.07422 c -0.69531,0 -1.04297,-0.83985 -0.55078,-1.33204 l 5.9414,-5.94531 c 0.29297,-0.29297 0.77344,-0.29297 1.06641,0 l 5.94531,5.94531 c 0.49219,0.49219 0.14453,1.33204 -0.55078,1.33204 H 14.5 v 6.5624995 c 0,0.51953 -0.41797,0.9375 -0.9375,0.9375 z M 22,16.684577 v 4.375 c 0,0.51953 -0.41797,0.9375 -0.9375,0.9375 H 2.9375 C 2.41797,21.997077 2,21.579107 2,21.059577 v -4.375 c 0,-0.51954 0.41797,-0.9375 0.9375,-0.9375 H 8.25 v 0.3125 c 0,1.20703 0.98047,2.1875 2.1875,2.1875 h 3.125 c 1.20703,0 2.1875,-0.98047 2.1875,-2.1875 v -0.3125 h 5.3125 c 0.51953,0 0.9375,0.41796 0.9375,0.9375 z m -4.84375,3.4375 c 0,-0.42969 -0.35156,-0.78125 -0.78125,-0.78125 -0.42969,0 -0.78125,0.35156 -0.78125,0.78125 0,0.429681 0.35156,0.78125 0.78125,0.78125 0.42969,0 0.78125,-0.351569 0.78125,-0.78125 z m 2.5,0 c 0,-0.42969 -0.35156,-0.78125 -0.78125,-0.78125 -0.42969,0 -0.78125,0.35156 -0.78125,0.78125 0,0.429681 0.35156,0.78125 0.78125,0.78125 0.42969,0 0.78125,-0.351569 0.78125,-0.78125 z" fill="#000000" />
</svg>
