<?xml version="1.0" encoding="UTF-8" standalone="no"?>
<!--
 Retrieved from: https://fontawesome.com/v6/icons/eye-slash?s=regular&f=classic
 License: https://fontawesome.com/license
 Modifications: scaled to 20x20px with additional 2px margin on all sides
-->
<svg xmlns="http://www.w3.org/2000/svg" viewBox="0 0 24 24">
  <path d="M 6.7211071,6.90937 Q 7.7518969,6.06599 9.0638114,5.53496 v 0 Q 10.406962,5.03518 12,5.00393 q 1.9054,0.0302 3.40473,0.74968 1.499331,0.71842 2.623829,1.78049 1.093262,1.0308 1.811691,2.12409 0.71843,1.09328 1.093262,1.96788 0.124944,0.37494 0,0.74968 -0.343597,0.78094 -0.968317,1.74927 -0.624721,0.99955 -1.530567,1.96788 l 3.279786,2.56139 q 0.499776,0.46856 0.124943,1.06207 -0.46854,0.49977 -1.062025,0.1251 L 2.2855869,5.34768 Q 1.78581,4.87912 2.1606425,4.28565 2.6291833,3.78584 3.2226684,4.16055 Z M 7.9393131,7.8777 9.3761719,9.0022 Q 10.469434,8.03387 12,8.00265 q 1.686748,0.0302 2.842481,1.15573 1.124499,1.15576 1.155735,2.84255 0,0.99955 -0.437305,1.84297 l 1.686747,1.31193 q 0.780901,-0.81216 1.34315,-1.65554 0.562249,-0.84341 0.87461,-1.49936 Q 19.121821,11.25125 18.4971,10.37661 17.903615,9.47076 16.997769,8.62738 16.029451,7.69027 14.78001,7.0968 13.530567,6.50329 12,6.47203 9.6260603,6.56573 7.9393131,7.8777 Z m 6.4033919,4.99786 q 0.156181,-0.40607 0.156181,-0.90589 -0.03122,-1.03081 -0.718429,-1.74923 -0.718429,-0.71846 -1.780455,-0.74968 0,0 -0.03122,0 -0.03122,0.0302 -0.06247,0.0302 0.09371,0.24983 0.09371,0.46855 0,0.53103 -0.218653,0.90586 l 2.561357,1.99917 z m 0.281125,4.09198 1.311914,1.03081 Q 14.248997,18.93546 12.000001,18.9979 10.094602,18.9677 8.5952709,18.24825 7.0959403,17.52979 5.971442,16.46776 4.8781801,15.4057 4.1597508,14.34367 3.4413217,13.25039 3.066489,12.37575 q -0.1249444,-0.37493 0,-0.74968 0.4685409,-1.1245 1.5305668,-2.56139 l 1.18697,0.90585 q -0.8746095,1.12455 -1.2494422,1.99914 0.3435968,0.74968 0.9370817,1.65554 0.6247211,0.90589 1.5305665,1.74927 0.968318,0.93707 2.2177602,1.49936 1.249442,0.59347 2.780009,0.62473 1.436858,-0.0302 2.623829,-0.53103 z M 8.0017857,11.96967 q 0,-0.0937 0,-0.21846 l 1.749219,1.37441 q 0.5310133,1.03081 1.6867473,1.28072 l 1.749219,1.40563 q -0.562249,0.15609 -1.218206,0.18746 -1.686747,-0.0302 -2.8112452,-1.18698 -1.1244978,-1.12454 -1.18697,-2.84255 h 0.031219 z"/>
</svg>
