<?xml version="1.0" encoding="UTF-8" standalone="no"?>
<!--
 Retrieved from: https://fontawesome.com/v6/icons/eye?s=regular&f=classic
 License: https://fontawesome.com/license
 Modifications: scaled to 20x20px with additional 2px margin on all sides
-->
<svg xmlns="http://www.w3.org/2000/svg" viewBox="0 0 24 24">
  <path d="m 7.5555551,12.00069 q 0.034735,-1.87485 1.2847222,-3.15951 v 0 Q 10.125,7.59126 11.999999,7.55653 q 1.875001,0.034 3.159722,1.28465 1.250001,1.28466 1.284723,3.15951 -0.03474,1.87489 -1.284723,3.15955 Q 13.875,16.41017 11.999999,16.44486 10.125,16.41086 8.8402773,15.16024 7.5902776,13.87558 7.5555551,12.00069 Z m 4.4444439,2.7776 q 1.180556,-0.034 1.979167,-0.79855 v 0 q 0.763889,-0.79855 0.798611,-1.97905 -0.03473,-1.18046 -0.798611,-1.97901 -0.798611,-0.76385 -1.979167,-0.79859 0,0 -0.03474,0 -0.03473,0 -0.06944,0 0.104167,0.27779 0.104167,0.55554 -0.03473,0.93744 -0.659722,1.56241 -0.625,0.62496 -1.5624999,0.65965 -0.2777776,0 -0.5555555,-0.10431 0,0.034 0,0.0695 0,0 0,0 0.034735,1.2152 0.7986114,1.97901 0.79861,0.79859 1.979166,0.83329 v 0 z M 5.2986107,7.03572 Q 6.5486108,5.85526 8.2152773,5.05671 v 0 q 1.6666668,-0.79859 3.7847217,-0.83328 2.118056,0.034 3.784722,0.83328 1.666667,0.79855 2.916667,1.97901 1.215278,1.14577 2.013889,2.361 0.798611,1.21519 1.215278,2.18733 0.13889,0.41664 0,0.83329 -0.416667,0.97217 -1.215278,2.18737 -0.798611,1.18049 -2.013889,2.36095 -1.25,1.1805 -2.916667,1.97905 Q 14.118055,19.74326 11.999999,19.778 9.8819441,19.744 8.2152773,18.94471 6.5486108,18.14616 5.2986107,16.96566 4.0833331,15.7852 3.2847221,14.60471 2.486111,13.38951 2.0694444,12.41734 q -0.1388888,-0.41665 0,-0.83329 0.4166666,-0.97214 1.2152777,-2.18733 0.798611,-1.21523 2.0138886,-2.361 z M 11.999999,5.89 Q 10.298611,5.924 8.9097219,6.58439 v 0 Q 7.520833,7.20935 6.4444442,8.25095 5.4374999,9.1884 4.7430552,10.19527 q -0.6597221,0.97214 -1.0416664,1.80542 0.3819443,0.79859 1.0416664,1.80546 0.6944447,1.00688 1.701389,1.94432 1.0763888,1.04161 2.4652777,1.66657 1.3888891,0.65966 3.0902771,0.69439 1.701389,-0.034 3.090278,-0.69439 1.388889,-0.62496 2.465278,-1.66657 1.006944,-0.93744 1.666666,-1.94432 0.694445,-1.00687 1.076389,-1.80546 Q 19.916666,11.16741 19.222221,10.19527 18.562499,9.1884 17.555555,8.25095 16.479166,7.20935 15.090277,6.58439 13.701388,5.92469 11.999999,5.89 Z"/>
</svg>
