<?xml version="1.0" encoding="utf-8"?>
<!-- Generator: Adobe Illustrator 19.2.1, SVG Export Plug-In . SVG Version: 6.00 Build 0)  -->
<svg version="1.1" id="Layer_1" xmlns="http://www.w3.org/2000/svg" xmlns:xlink="http://www.w3.org/1999/xlink" x="0px" y="0px"
	 width="24px" height="24px" viewBox="0 0 24 24" style="enable-background:new 0 0 24 24;" xml:space="preserve">
<style type="text/css">
	.st0{fill:#A4D65E;}
</style>
<path class="st0" d="M12,1.3C6.1,1.3,1.3,6.1,1.3,12S6.1,22.7,12,22.7S22.7,17.9,22.7,12S17.9,1.3,12,1.3z M13.7,15.9
	c-0.8,1.2-1.6,2.1-3,2.1c-0.9-0.2-1.3-0.8-1.1-1.5l1.8-5.9c0-0.1,0-0.3-0.2-0.3c-0.1,0-0.4,0.1-0.6,0.4L9.5,12c0-0.2,0-0.6,0-0.7
	c0.8-1.2,2.1-2.2,3-2.2c0.9,0.1,1.3,0.8,1.1,1.5l-1.8,5.9c0,0.1,0,0.3,0.2,0.3c0.1,0,0.4-0.1,0.6-0.4l1.1-1.3
	C13.7,15.4,13.7,15.8,13.7,15.9z M13.4,8.3c-0.7,0-1.2-0.5-1.2-1.2s0.5-1.2,1.2-1.2s1.2,0.5,1.2,1.2C14.7,7.8,14.1,8.3,13.4,8.3z"/>
</svg>
