<?xml version="1.0" encoding="utf-8"?>
<!-- Generator: Adobe Illustrator 19.2.1, SVG Export Plug-In . SVG Version: 6.00 Build 0)  -->
<svg version="1.1" id="Layer_1" xmlns="http://www.w3.org/2000/svg" xmlns:xlink="http://www.w3.org/1999/xlink" x="0px" y="0px"
	 width="24px" height="24px" viewBox="0 0 24 24" style="enable-background:new 0 0 24 24;" xml:space="preserve">
<style type="text/css">
	.st0{fill:#43B02A;}
</style>
<path class="st0" d="M19,3c1.1,0,2,0.9,2,2v14c0,1.1-0.9,2-2,2H5c-1.1,0-2-0.9-2-2V5c0-1.1,0.9-2,2-2C5,3,19,3,19,3z M19,5H5v14h14
	C19,19,19,5,19,5z"/>
<path class="st0" d="M18.8,11.7L12,18.5l-6.8-6.8l1.3-1.3l4.5,4.5L11,3h1.9L13,14.9l4.5-4.5C17.4,10.4,18.8,11.7,18.8,11.7z"/>
</svg>
