<?xml version="1.0" encoding="UTF-8" standalone="no"?>
<svg
   xmlns:dc="http://purl.org/dc/elements/1.1/"
   xmlns:cc="http://creativecommons.org/ns#"
   xmlns:rdf="http://www.w3.org/1999/02/22-rdf-syntax-ns#"
   xmlns:svg="http://www.w3.org/2000/svg"
   xmlns="http://www.w3.org/2000/svg"
   version="1.1"
   id="svg2"
   viewBox="0 0 24 24"
   height="24"
   width="24">
  <path
     id="path4"
     d="m 9.142856,5.7143339 5.714288,0 0,-1.4286667 -5.714288,0 0,1.4286667 z M 22,12.857111 l 0,5.357222 q 0,0.736556 -0.524556,1.261111 Q 20.950889,20 20.214289,20 L 3.7857111,20 Q 3.0491111,20 2.5245556,19.475444 2,18.950889 2,18.214333 l 0,-5.357222 7.5,0 0,1.785778 q 0,0.290111 0.212056,0.502222 0.212055,0.212 0.502233,0.212 l 3.571422,0 q 0.290178,0 0.502233,-0.212 Q 14.5,14.933 14.5,14.642889 l 0,-1.785778 7.5,0 z m -8.571433,0 0,1.428556 -2.857134,0 0,-1.428556 2.857134,0 z M 22,7.5000006 l 0,4.2856664 -20,0 0,-4.2856664 Q 2,6.763445 2.5245556,6.2388894 3.0491111,5.7143339 3.7857111,5.7143339 l 3.9285778,0 0,-1.7857778 q 0,-0.4464444 0.3125,-0.7588889 0.3125,-0.3125555 0.7589222,-0.3125555 l 6.4285779,0 q 0.446422,0 0.758922,0.3125555 0.3125,0.3124445 0.3125,0.7588889 l 0,1.7857778 3.928578,0 q 0.7366,0 1.261155,0.5245555 Q 22,6.763445 22,7.5000006 Z" />
</svg>
