<?xml version="1.0" encoding="UTF-8" standalone="no"?>
<!--
 Retrieved from: https://fontawesome.com/v5.15/icons/upload
 License: https://fontawesome.com/license
 Modifications: scaled to 20x20px with additional 2px margin on all sides
-->
<svg xmlns="http://www.w3.org/2000/svg" viewBox="0 0 24 24">
    <path d="M21.544,2L19.692,2C19.692,2 19.692,2 19.692,2C19.435,2 19.223,2.212 19.223,2.469C19.223,2.476 19.223,2.484 19.223,2.491L19.38,5.724C17.542,3.558 14.84,2.309 12,2.312C6.662,2.313 2.309,6.669 2.313,12.007C2.316,17.354 6.652,21.688 12,21.688C14.398,21.691 16.714,20.8 18.491,19.191C18.591,19.102 18.648,18.975 18.648,18.842C18.648,18.717 18.598,18.598 18.51,18.51L17.182,17.182C17.009,17.009 16.727,16.999 16.542,17.161C15.287,18.264 13.672,18.874 12.001,18.874C8.229,18.874 5.126,15.77 5.126,11.999C5.126,8.227 8.229,5.124 12.001,5.124C14.288,5.124 16.431,6.266 17.707,8.164L13.741,7.974C13.734,7.973 13.726,7.973 13.719,7.973C13.462,7.973 13.25,8.185 13.25,8.442C13.25,8.442 13.25,8.442 13.25,8.443L13.25,10.295C13.25,10.552 13.462,10.763 13.719,10.763L21.544,10.763C21.801,10.763 22.013,10.552 22.013,10.295L22.013,2.469C22.013,2.212 21.801,2 21.544,2Z" fill="#008984" style="fill-rule:nonzero;"/>
</svg>
