<?xml version="1.0" encoding="UTF-8" standalone="no"?>
<!--
 Retrieved from: https://fontawesome.com/v5.15/icons/exclamation-circle-solid
 License: https://fontawesome.com/license
 Modifications: scaled to 20x20px with additional 2px margin on all sides
-->
<svg xmlns="http://www.w3.org/2000/svg" viewBox="2 2 20 20">
    <path d="M21.688,12C21.688,17.351 17.35,21.688 12,21.688C6.65,21.688 2.313,17.351 2.313,12C2.313,6.652 6.65,2.313 12,2.313C17.35,2.313 21.688,6.652 21.688,12ZM12,13.953C11.008,13.953 10.203,14.758 10.203,15.75C10.203,16.742 11.008,17.547 12,17.547C12.992,17.547 13.797,16.742 13.797,15.75C13.797,14.758 12.992,13.953 12,13.953ZM10.294,7.494L10.584,12.807C10.597,13.055 10.803,13.25 11.052,13.25L12.948,13.25C13.197,13.25 13.403,13.055 13.416,12.807L13.706,7.494C13.721,7.226 13.507,7 13.238,7L10.762,7C10.493,7 10.279,7.226 10.294,7.494Z" fill="#80BC00"/>
</svg>
