<?xml version="1.0" encoding="utf-8"?>
<!-- Generator: Adobe Illustrator 19.2.1, SVG Export Plug-In . SVG Version: 6.00 Build 0)  -->
<svg version="1.1" id="Layer_1" xmlns="http://www.w3.org/2000/svg" xmlns:xlink="http://www.w3.org/1999/xlink" x="0px" y="0px"
	 width="24px" height="24px" viewBox="0 0 24 24" style="enable-background:new 0 0 24 24;" xml:space="preserve">
<style type="text/css">
	.st0{fill:#4E758C;}
</style>
<path class="st0" d="M23.4,4.9c-0.8,0.4-1.7,0.6-2.7,0.7c1-0.6,1.7-1.5,2.1-2.6c-0.9,0.5-1.9,0.9-3,1.1c-0.9-0.9-2.1-1.5-3.4-1.5
	c-2.6,0-4.7,2.1-4.7,4.7c0,0.4,0,0.7,0.1,1.1c-3.9-0.1-7.3-2-9.7-4.8C1.7,4.3,1.5,5.1,1.5,5.9c0,1.6,0.8,3.1,2.1,3.9
	c-0.8,0-1.5-0.2-2.1-0.6c0,0,0,0,0,0.1c0,2.3,1.6,4.2,3.8,4.6C4.8,14,4.4,14.1,4,14.1c-0.3,0-0.6,0-0.9-0.1c0.6,1.9,2.3,3.2,4.4,3.3
	c-1.6,1.3-3.6,2-5.8,2c-0.4,0-0.8,0-1.1-0.1c2.1,1.3,4.5,2.1,7.2,2.1c8.6,0,13.4-7.2,13.4-13.4c0-0.2,0-0.4,0-0.6
	C22,6.7,22.8,5.8,23.4,4.9z"/>
</svg>
