<?xml version="1.0" encoding="utf-8"?>
<!-- Generator: Adobe Illustrator 24.3.0, SVG Export Plug-In . SVG Version: 6.00 Build 0)  -->
<svg version="1.1" xmlns="http://www.w3.org/2000/svg" xmlns:xlink="http://www.w3.org/1999/xlink" x="0px" y="0px"
	 viewBox="0 0 729 92" style="enable-background:new 0 0 729 92;" xml:space="preserve">
<style type="text/css">
	.st0{fill:#43B02A;}
	.st1{fill:#06262D;}
	.st2{fill:#3DAE2B;}
</style>
<g id="Layer_2">
</g>
<g id="Layer_1">
	<g>
		<path class="st0" d="M419.5,26.8c0-0.6,0.5-1,1.1-1h1.4l25,31.1c0.1,0,0.1,0,0.1,0V27.4c0-0.6,0.4-1.1,1.1-1.1h1.9
			c0.6,0,1.1,0.5,1.1,1.1v37.3c0,0.6-0.5,1-1.1,1h-1L423.6,34h-0.1v30.1c0,0.6-0.4,1.1-1.1,1.1h-1.9c-0.6,0-1.1-0.5-1.1-1.1V26.8
			H419.5z"/>
		<path class="st0" d="M455.8,63.7l16.8-37.3c0.2-0.3,0.4-0.6,0.9-0.6h0.6c0.5,0,0.8,0.3,0.9,0.6l16.7,37.3c0.3,0.7-0.1,1.4-0.9,1.4
			h-2.2c-0.5,0-0.8-0.3-0.9-0.6l-4.1-9.1H464l-4,9.1c-0.1,0.3-0.4,0.6-0.9,0.6h-2.2C455.9,65.1,455.5,64.4,455.8,63.7z M482.1,52
			c-2.7-6-5.4-12.1-8.1-18.2h-0.4L465.5,52H482.1z"/>
		<path class="st0" d="M488.2,27.8c-0.3-0.7,0.1-1.4,0.9-1.4h2.2c0.5,0,0.8,0.3,0.9,0.6L506,58h0.2L520,27c0.1-0.3,0.5-0.6,0.9-0.6
			h2.2c0.8,0,1.3,0.7,0.9,1.4l-16.8,37.3c-0.2,0.3-0.5,0.6-0.9,0.6h-0.6c-0.4,0-0.8-0.3-0.9-0.6L488.2,27.8z"/>
		<path class="st0" d="M529,27.4c0-0.6,0.5-1.1,1.1-1.1h2.2c0.6,0,1.1,0.5,1.1,1.1V64c0,0.6-0.5,1.1-1.1,1.1h-2.2
			c-0.6,0-1.1-0.5-1.1-1.1V27.4z"/>
		<path class="st0" d="M560.3,25.8c5.6,0,9.6,1.9,13.4,5.1c0.4,0.4,0.5,1.1,0.1,1.5c-0.5,0.5-1.1,1.1-1.5,1.5
			c-0.5,0.6-0.8,0.5-1.4-0.1c-2.8-2.5-6.8-4.3-10.5-4.3c-8.7,0-15.4,7.3-15.4,15.9c0,8.5,6.6,16,15.4,16c6.1,0,10-2.3,10-2.3v-7.7
			H564c-0.6,0-1.1-0.4-1.1-1v-2c0-0.6,0.4-1.1,1.1-1.1h9.6c0.6,0,1,0.5,1,1.1v12.7c0,0.3-0.2,0.7-0.4,0.9c0,0-5.6,3.7-13.7,3.7
			c-11.1,0-20-8.8-20-19.9S549.2,25.8,560.3,25.8z"/>
		<path class="st0" d="M577.9,63.7l16.8-37.3c0.2-0.3,0.4-0.6,0.9-0.6h0.6c0.5,0,0.8,0.3,0.9,0.6l16.7,37.3c0.3,0.7-0.1,1.4-0.9,1.4
			h-2.2c-0.5,0-0.8-0.3-0.9-0.6l-4.1-9.1H586l-4,9.1c-0.1,0.3-0.4,0.6-0.9,0.6h-2.2C578,65.1,577.6,64.4,577.9,63.7z M604.2,52
			c-2.7-6-5.4-12.1-8.1-18.2h-0.4L587.6,52H604.2z"/>
		<path class="st0" d="M621.1,30.1h-9.6c-0.6,0-1.1-0.5-1.1-1.1v-1.6c0-0.6,0.4-1.1,1.1-1.1H635c0.6,0,1.1,0.5,1.1,1.1V29
			c0,0.6-0.4,1.1-1.1,1.1h-9.6v34c0,0.6-0.5,1.1-1.1,1.1h-2.1c-0.6,0-1.1-0.5-1.1-1.1L621.1,30.1L621.1,30.1z"/>
		<path class="st0" d="M655.6,25.8c11.1,0,19.9,8.9,19.9,20s-8.9,19.9-19.9,19.9c-11.1,0-19.9-8.8-19.9-19.9S644.5,25.8,655.6,25.8z
			 M655.6,61.8c8.8,0,16.1-7.2,16.1-16s-7.3-16.1-16.1-16.1s-16,7.3-16,16.1S646.8,61.8,655.6,61.8z"/>
		<path class="st0" d="M682.6,27.4c0-0.6,0.4-1.1,1.1-1.1H698c6.6,0,12.1,5.2,12.1,11.8c0,5.1-3.4,9.4-8.2,11.3l7.6,14.1
			c0.4,0.7,0,1.6-0.9,1.6h-2.8c-0.5,0-0.8-0.3-0.9-0.5L697.4,50h-10.6v14.1c0,0.6-0.5,1.1-1.1,1.1h-2.2c-0.6,0-1.1-0.5-1.1-1.1V27.4
			H682.6z M697.7,46.3c4.3,0,8-3.5,8-8.1c0-4.2-3.7-7.8-8-7.8H687v15.9C687,46.3,697.7,46.3,697.7,46.3z"/>
	</g>
	<g>
		<g>
			<g>
				<g>
					<g>
						<path class="st1" d="M121.5,26.9c-0.2-0.3-0.4-0.6-0.9-0.6h-0.5c-0.5,0-0.8,0.3-0.9,0.6l-16.8,36.5c-0.3,0.7,0.1,1.4,0.9,1.4
							h4.8c0.9,0,1.4-0.5,1.6-1.1l2.7-5.8h16.2l2.7,5.8c0.4,0.8,0.8,1.1,1.6,1.1h4.8c0.8,0,1.3-0.7,0.9-1.4L121.5,26.9z M114.8,51.9
							l5.3-11.9h0.2l5.4,11.9H114.8z"/>
					</g>
					<g>
						<path class="st1" d="M173.1,26.9h-5c-0.6,0-1,0.5-1,1v22.4H167l-22.6-24h-1.4c-0.5,0-1,0.4-1,1v36.4c0,0.5,0.5,1,1,1h5
							c0.6,0,1-0.5,1-1V40.5h0.1l22.7,24.9h1.3c0.5,0,1-0.4,1-1V27.9C174.2,27.4,173.7,26.9,173.1,26.9z"/>
					</g>
					<g>
						<path class="st1" d="M197.4,26.9c-0.2-0.3-0.4-0.6-0.9-0.6h-0.5c-0.5,0-0.8,0.3-0.9,0.6l-16.8,36.5c-0.3,0.7,0.1,1.4,0.9,1.4
							h4.8c0.9,0,1.4-0.5,1.6-1.1l2.7-5.8h16.2l2.7,5.8c0.4,0.8,0.8,1.1,1.6,1.1h4.8c0.8,0,1.3-0.7,0.9-1.4L197.4,26.9z M190.7,51.9
							l5.3-11.9h0.2l5.4,11.9H190.7z"/>
					</g>
					<g>
						<path class="st1" d="M243.8,55.1c-0.3-0.3-0.9-0.4-1.4,0c-2.3,1.9-5.1,3.1-8.3,3.1c-6.9,0-12.2-5.7-12.2-12.5
							c0-6.8,5.1-12.7,12.1-12.7c3.1,0,6,1.2,8.3,3.2c0.4,0.4,1,0.4,1.4,0l3.3-3.4c0.4-0.4,0.4-1.1-0.1-1.5
							c-3.7-3.3-7.6-5.1-13.1-5.1c-10.8,0-19.6,8.7-19.6,19.6c0,10.8,8.7,19.4,19.6,19.4c4.9,0,9.5-1.7,13.2-5.2
							c0.4-0.4,0.5-1.1,0.1-1.5L243.8,55.1z"/>
					</g>
					<g>
						<path class="st1" d="M269.4,26.3c-10.8,0-19.4,8.7-19.4,19.6c0,10.8,8.6,19.4,19.4,19.4c10.8,0,19.5-8.6,19.5-19.4
							C288.9,35,280.2,26.3,269.4,26.3z M269.4,58.3c-6.8,0-12.4-5.5-12.4-12.4s5.5-12.5,12.4-12.5c6.8,0,12.5,5.6,12.5,12.5
							C281.8,52.7,276.3,58.3,269.4,58.3z"/>
					</g>
					<g>
						<path class="st1" d="M325.9,26.9h-5c-0.6,0-1,0.5-1,1v22.4h-0.1l-22.6-24h-1.4c-0.5,0-1,0.4-1,1v36.4c0,0.5,0.5,1,1,1h5
							c0.6,0,1-0.5,1-1V40.5h0.1l22.7,24.9h1.3c0.5,0,1-0.4,1-1V27.9C326.9,27.4,326.4,26.9,325.9,26.9z"/>
					</g>
					<g>
						<path class="st1" d="M347.6,26.9h-12.9c-0.5,0-1,0.5-1,1v35.8c0,0.5,0.4,1,1,1h12.9c10.5,0,19-8.5,19-19
							C366.6,35.4,358.1,26.9,347.6,26.9z M347,58.2h-6.2V33.4h6.1c7,0,12.2,5.3,12.2,12.4C359.1,52.8,354,58.2,347,58.2z"/>
					</g>
					<g>
						<path class="st1" d="M402.8,63.5l-16.7-36.4c-0.2-0.3-0.4-0.6-0.9-0.6h-0.5c-0.5,0-0.8,0.3-0.9,0.6L367,63.5
							c-0.3,0.7,0.1,1.4,0.9,1.4h4.8c0.9,0,1.4-0.5,1.6-1.1l2.7-5.8h16.2l2.7,5.8c0.4,0.8,0.8,1.1,1.6,1.1h4.8
							C402.7,64.8,403.1,64.2,402.8,63.5z M379.4,51.9l5.3-11.9h0.2l5.4,11.9H379.4z"/>
					</g>
					<g>
						<g>
							<path class="st1" d="M409.5,64.2h0.3c0.1,0,0.2-0.1,0.2-0.2v-1h0.6l0.4,1.1c0,0.1,0.1,0.1,0.2,0.1h0.4c0.1,0,0.2-0.1,0.2-0.2
								c-0.2-0.3-0.3-0.7-0.5-1c0.3-0.1,0.7-0.4,0.7-1c0-0.7-0.5-1.1-1.1-1.1h-1.3c-0.1,0-0.2,0.1-0.2,0.2V64
								C409.4,64.2,409.4,64.2,409.5,64.2z M410,61.6h0.8c0.3,0,0.4,0.2,0.4,0.4c0,0.2-0.2,0.4-0.4,0.4H410V61.6z"/>
						</g>
						<g>
							<path class="st1" d="M410.5,65.8c1.8,0,3.2-1.4,3.2-3.2c0-1.8-1.5-3.2-3.2-3.2c-1.8,0-3.2,1.5-3.2,3.2S408.8,65.8,410.5,65.8
								z M410.5,60c1.4,0,2.6,1.2,2.6,2.6s-1.2,2.6-2.6,2.6s-2.6-1.2-2.6-2.6S409.1,60,410.5,60z"/>
						</g>
					</g>
				</g>
				<g>
					<path class="st2" d="M32.3,63.4v-0.2c0-2,0.2-3.9,0.5-5.7v-0.2l-0.2-0.1c-1.8-0.7-3.5-1.7-5.1-2.6l-0.2-0.1l-0.1,0.2
						c-1.1,2.2-2,4.6-2.8,6.9l-0.1,0.2l0.2,0.1c2.5,0.7,5,1.2,7.5,1.4L32.3,63.4z"/>
					<path class="st2" d="M37.4,29.5C37.4,29.4,37.4,29.4,37.4,29.5c-1.5,0-2.9,0.1-4.4,0.2c0.2,1.5,0.4,2.9,0.8,4.4
						C34.9,32.3,36,30.8,37.4,29.5z"/>
					<path class="st2" d="M32.3,65.2V65h-0.2c-2.1-0.2-4.3-0.6-6.4-1.1L25,63.8l0.3,0.5c1.9,2.9,4.3,5.4,7,7.7l0.4,0.4v-0.7
						C32.5,69.5,32.3,67.2,32.3,65.2z"/>
					<path class="st2" d="M42.7,13.9c-2.6,0.9-5.1,2.1-7.3,3.6c1.7,0.3,3.4,0.7,5.1,1.2C41.1,17.1,41.8,15.5,42.7,13.9z"/>
					<path class="st2" d="M53.5,12.1c-1.3,0-2.6,0.1-3.8,0.2c1.8,1.2,3.5,2.6,5.1,4.1l1.3,1.2l-1.3,1.3c-1.1,1-2.2,2.2-3.2,3.4v0.1
						c0,0-0.2,0.2-0.5,0.6c0.8-0.1,1.6-0.1,2.4-0.1C66,22.8,76.2,33,76.2,45.6S66,68.4,53.5,68.4c-4.4,0-8.4-1.2-11.9-3.4
						c-1.7,0.2-3.5,0.3-5.1,0.3c-0.8,0-1.6,0-2.4-0.1c0.1,2.6,0.3,5.2,0.7,8c5.3,3.7,11.8,5.7,18.7,5.7C72,79,86.9,64,86.9,45.5
						C86.9,27.1,72,12.1,53.5,12.1z"/>
					<path class="st2" d="M49,20.1c0.7-0.8,1.4-1.6,2.1-2.3c-1.6-1.3-3.3-2.6-5-3.7c-1.1,1.8-2,3.7-2.8,5.5c1.5,0.6,3,1.2,4.5,1.9
						C48.4,20.8,48.9,20.2,49,20.1z"/>
					<path class="st2" d="M26.3,39.2l0.1,0.2l0.2-0.1c1.6-1.1,3.2-2.2,4.9-3.1l0.2-0.1v-0.2c-0.5-1.9-0.9-3.9-1.1-5.8v-0.2h-0.2
						c-2.5,0.5-5,1.1-7.2,2L23,32l0.1,0.2C23.8,34.5,25,36.9,26.3,39.2z"/>
					<path class="st2" d="M25.9,42.3l-0.2,0.2c-1.8,1.5-3.5,3.1-5.1,4.9l-0.2,0.2l0.2,0.2c1.8,1.5,3.6,2.9,5.5,4.2l0.2,0.1l0.1-0.2
						c0.9-1.6,1.9-3.1,3-4.6l0.1-0.2L29.5,47c-1.2-1.4-2.4-2.8-3.5-4.4L25.9,42.3z"/>
					<path class="st2" d="M39.1,63.5h0.6l-0.5-0.4c-1.8-1.5-3.4-3.2-4.6-5.1v-0.1l-0.4-0.2V58c-0.2,1.7-0.4,3.5-0.4,5.2v0.2h0.2
						c0.8,0,1.6,0.1,2.4,0.1C37.3,63.5,38.2,63.5,39.1,63.5z"/>
					<path class="st2" d="M38,26.5c0.4-1.7,0.8-3.3,1.4-4.9c-2.1-0.6-4.3-1.1-6.4-1.4c-0.2,2.3-0.2,4.4-0.1,6.5
						C34.6,26.6,36.2,26.5,38,26.5z"/>
					<path class="st2" d="M41.2,26.4c1.5-0.9,3.1-1.7,4.7-2.3c-1.2-0.6-2.4-1.1-3.6-1.5C41.9,23.8,41.5,25.1,41.2,26.4z"/>
					<path class="st2" d="M25.6,53.5h-0.2c-1.7-1.1-3.4-2.3-5-3.6L20,49.6l0.1,0.6c0.4,3.2,1.3,6.3,2.7,9.3L23,60l0.2-0.5
						c0.7-1.9,1.5-3.8,2.4-5.5L25.6,53.5z"/>
					<path class="st2" d="M29.9,21.9c-2,2-3.8,4.3-5.1,6.6c1.7-0.5,3.5-0.9,5.2-1.3C29.9,25.4,29.9,23.6,29.9,21.9z"/>
					<path class="st2" d="M30.9,45.3v-0.6c0.1-2.1,0.4-4.1,1-5.9l0.2-0.6l-0.5,0.3c-1.3,0.8-2.6,1.6-3.9,2.5l-0.2,0.1l0.3,0.2
						c0.9,1.2,1.8,2.5,2.8,3.6L30.9,45.3z"/>
					<path class="st2" d="M31.2,48.8l-0.1-0.6l-0.3,0.5c-0.9,1.3-1.8,2.7-2.6,4.1l-0.1,0.2l0.2,0.1c1.4,0.8,2.9,1.5,4.4,2.2l0.5,0.2
						L33,54.9C32.1,53,31.5,50.9,31.2,48.8z"/>
					<path class="st2" d="M24.7,40.8l0.2-0.1l-0.1-0.2c-1.1-1.7-2-3.5-2.9-5.2l-0.2-0.5l-0.2,0.6c-1,3.1-1.5,6.1-1.6,9.4v0.6
						l0.4-0.4C21.6,43.3,23.1,42,24.7,40.8z"/>
				</g>
			</g>
		</g>
	</g>
</g>
</svg>
