<?xml version="1.0" encoding="UTF-8" standalone="no"?>
<svg
   xmlns:dc="http://purl.org/dc/elements/1.1/"
   xmlns:cc="http://creativecommons.org/ns#"
   xmlns:rdf="http://www.w3.org/1999/02/22-rdf-syntax-ns#"
   xmlns:svg="http://www.w3.org/2000/svg"
   xmlns="http://www.w3.org/2000/svg"
   viewBox="0 0 16 16"
   height="16"
   width="16"
   version="1.1"
   id="svg5597">
  <metadata
     id="metadata5603">
    <rdf:RDF>
      <cc:Work
         rdf:about="">
        <dc:format>image/svg+xml</dc:format>
        <dc:type
           rdf:resource="http://purl.org/dc/dcmitype/StillImage" />
        <dc:title></dc:title>
      </cc:Work>
    </rdf:RDF>
  </metadata>
  <defs
     id="defs5601" />
  <g
     transform="translate(0,-1984)"
     style="fill:#3776aa;fill-opacity:1"
     id="g5659">
    <g
       transform="matrix(0.007,0,0,0.007,1,1985)"
       id="g5690">
      <path
         style="fill:#366f9e;fill-opacity:1"
         d="m 259.37657,1490.4212 c -52.675,-8.106 -97.52659,-31.9469 -137.56337,-73.1218 C 64.798174,1358.6637 28.018461,1271.5035 10.478594,1153.4598 -3.9849444,1056.1199 -3.432031,931.48613 11.867323,840.42265 21.908889,780.65412 36.720478,732.71838 58.99365,687.90455 c 48.6622,-97.90881 125.20897,-155.14863 224.79552,-168.09666 4.87246,-0.6335 134.9285,-0.96574 363.45461,-0.92847 266.60227,0.0435 356.21432,-0.23018 357.25142,-1.09103 1.1261,-0.93465 1.3844,-7.08284 1.3844,-32.94861 0,-17.48974 -0.2731,-32.51143 -0.607,-33.38151 -0.5512,-1.43653 -22.88239,-1.58198 -242.89397,-1.58198 -215.37501,0 -242.35151,-0.16809 -242.86764,-1.51327 -0.31935,-0.83229 -0.61156,-56.75142 -0.64937,-124.26475 -0.075,-133.88866 -0.28203,-128.4852 5.65917,-147.68052 3.49584,-11.29468 13.16225,-30.3311 21.11311,-41.57885 8.8045,-12.45535 30.953,-34.70563 44.42983,-44.633992 C 628.07674,62.20077 674.45776,41.904822 734.86737,26.840047 803.04171,9.8389229 877.00386,1.6220951 974.87951,0.17588625 1130.8849,-2.1292455 1255.8769,18.241367 1343.4225,60.239277 c 35.6242,17.089827 63.2776,36.393897 87.0087,60.738233 18.5472,19.02647 29.7521,34.79735 40.0475,56.36643 9.3502,19.58859 15.4339,40.92314 17.1116,60.00712 0.4352,4.95059 0.5406,119.71422 0.2343,255.03028 -0.607,268.09326 -0.2167,250.10456 -6.0648,279.53318 -12.7143,63.97992 -46.5304,114.50781 -99.9228,149.30444 -38.3959,25.02309 -92.6262,42.33125 -146.2609,46.68061 -8.3982,0.68102 -100.2791,1.04189 -267.00109,1.04866 -166.02544,0.007 -258.35893,0.36793 -266.19662,1.04132 -60.5264,5.20022 -109.75429,23.18714 -149.00061,54.44195 -10.01711,7.9773 -26.42653,24.4579 -35.364,35.5172 -30.64063,37.9151 -50.6818,86.6041 -60.30906,146.5174 -2.24053,13.9435 -2.25106,14.5565 -2.5344,147.5175 -0.15648,73.4337 -0.51999,134.5285 -0.80779,135.7661 l -0.52326,2.2503 -92.73134,-0.097 c -73.61508,-0.077 -94.58665,-0.3824 -101.73136,-1.4819 z M 750.37859,325.91308 c 29.9318,-7.78257 54.41621,-32.23438 62.64231,-62.55893 3.09783,-11.41976 3.097,-32.59125 -0.002,-44.00522 -11.09575,-40.87062 -48.17122,-67.71967 -90.04156,-65.20565 -22.55831,1.35447 -41.81893,10.36121 -57.83365,27.04443 -17.15687,17.87304 -25.18625,39.37926 -23.95584,64.1643 0.65044,13.10227 2.57619,21.10601 7.78296,32.34736 12.34903,26.66136 36.06787,44.81505 65.56711,50.18311 7.78731,1.41708 26.84312,0.36997 35.8404,-1.9694 z"
         id="path5661" />
      <path
         id="path5688"
         d="m 1740.6235,509.57876 c 52.675,8.10606 97.5266,31.94689 137.5633,73.12178 57.015,58.63576 93.7948,145.7959 111.3347,263.83962 14.4634,97.33996 13.9105,221.97364 -1.3888,313.03714 -10.0416,59.7685 -24.8531,107.7043 -47.1263,152.5181 -48.6622,97.9088 -125.209,155.1486 -224.7955,168.0967 -4.8725,0.6335 -134.9285,0.9657 -363.4546,0.9285 -266.6024,-0.043 -356.2144,0.2301 -357.25151,1.091 -1.1261,0.9346 -1.3844,7.0829 -1.3844,32.9486 0,17.4897 0.2731,32.5114 0.607,33.3815 0.5512,1.4366 22.88231,1.582 242.89401,1.582 215.375,0 242.3515,0.1681 242.8677,1.5133 0.3193,0.8323 0.6115,56.7514 0.6493,124.2647 0.075,133.8887 0.282,128.4853 -5.6591,147.6806 -3.4959,11.2946 -13.1623,30.3311 -21.1132,41.5788 -8.8044,12.4554 -30.9529,34.7056 -44.4298,44.634 -38.013,28.0041 -84.394,48.3001 -144.8036,63.3648 -68.1743,17.0011 -142.1365,25.218 -240.0122,26.6642 -156.00535,2.3052 -280.99736,-18.0655 -368.54303,-60.0634 -35.62414,-17.0898 -63.27755,-36.3939 -87.00865,-60.7382 -18.54718,-19.0265 -29.75213,-34.7974 -40.04757,-56.3665 -9.35014,-19.5885 -15.43386,-40.9231 -17.11157,-60.0071 -0.4352,-4.9506 -0.5406,-119.7142 -0.2343,-255.0303 0.607,-268.0932 0.2167,-250.1046 6.06483,-279.5332 12.71425,-63.9799 46.53039,-114.5078 99.92281,-149.3044 38.39585,-25.0231 92.62618,-42.3312 146.2609,-46.6806 8.39813,-0.681 100.27911,-1.0419 267.00108,-1.0487 166.0255,-0.01 258.3589,-0.3679 266.1967,-1.0413 60.5264,-5.2002 109.7542,-23.1871 149.0006,-54.44192 10.0171,-7.97734 26.4265,-24.4579 35.364,-35.51721 30.6406,-37.91511 50.6817,-86.60409 60.3091,-146.5174 2.2405,-13.94346 2.251,-14.55653 2.5344,-147.51751 0.1564,-73.43372 0.5199,-134.52847 0.8077,-135.76612 l 0.5233,-2.25027 92.7314,0.097 c 73.6149,0.077 94.5865,0.38235 101.7313,1.48188 z m -491.002,1164.50814 c -29.9318,7.7825 -54.4162,32.2344 -62.6424,62.5589 -3.0978,11.4198 -3.0969,32.5913 0,44.0053 11.0959,40.8706 48.1713,67.7196 90.0416,65.2056 22.5584,-1.3545 41.819,-10.3612 57.8337,-27.0444 17.1568,-17.873 25.1862,-39.3793 23.9558,-64.1643 -0.6504,-13.1023 -2.5762,-21.106 -7.7829,-32.3474 -12.3491,-26.6613 -36.068,-44.815 -65.5672,-50.1831 -7.7873,-1.4171 -26.8431,-0.37 -35.8403,1.9694 z"
         style="fill:#ffd536;fill-opacity:1" />
    </g>
  </g>
</svg>
