<?xml version="1.0" encoding="UTF-8"?>
<!-- Generator: Adobe Illustrator 23.1.1, SVG Export Plug-In . SVG Version: 6.00 Build 0)  -->
<svg xmlns="http://www.w3.org/2000/svg" xmlns:xlink="http://www.w3.org/1999/xlink" version="1.1" id="Layer_1" x="0px" y="0px" viewBox="0 0 936 165.5" style="enable-background:new 0 0 936 165.5;" xml:space="preserve">
<style type="text/css">
	.st0{fill:#06262D;}
	.st1{fill:#3DAE2B;}
	.st2{fill:#0075A9;}
	.st3{fill:#00A19B;}
	.st4{fill:#80BC00;}
</style>
<g>
	<g>
		<g>
			<g>
				<g>
					<path class="st0" d="M243,39.6c-0.5-0.7-0.9-1.4-2.1-1.4h-1.2c-1.2,0-1.9,0.7-2.1,1.4l-39.4,85.6c-0.7,1.6,0.2,3.2,2.1,3.2       h11.1c2.1,0,3.2-1.2,3.7-2.6l6.3-13.7h38l6.3,13.7c0.9,1.9,1.9,2.6,3.7,2.6h11.1c1.9,0,3-1.6,2.1-3.2L243,39.6z M227.2,98       l12.5-27.8h0.5L253,98H227.2z"></path>
				</g>
				<g>
					<path class="st0" d="M363.9,39.6h-11.6c-1.4,0-2.3,1.2-2.3,2.3v52.4h-0.2l-52.9-56.1h-3.2c-1.2,0-2.3,0.9-2.3,2.3v85.4       c0,1.2,1.2,2.3,2.3,2.3h11.6c1.4,0,2.3-1.2,2.3-2.3V71.3h0.2l53.1,58.2h3c1.2,0,2.3-0.9,2.3-2.3V41.9       C366.4,40.7,365.2,39.6,363.9,39.6z"></path>
				</g>
				<g>
					<path class="st0" d="M420.9,39.6c-0.5-0.7-0.9-1.4-2.1-1.4h-1.2c-1.2,0-1.9,0.7-2.1,1.4l-39.4,85.6c-0.7,1.6,0.2,3.2,2.1,3.2       h11.1c2.1,0,3.2-1.2,3.7-2.6l6.3-13.7h38l6.3,13.7c0.9,1.9,1.9,2.6,3.7,2.6h11.1c1.9,0,3-1.6,2.1-3.2L420.9,39.6z M405.1,98       l12.5-27.8h0.5L430.9,98H405.1z"></path>
				</g>
				<g>
					<path class="st0" d="M529.5,105.7c-0.7-0.7-2.1-0.9-3.2,0c-5.3,4.4-11.8,7.2-19.5,7.2c-16.2,0-28.5-13.5-28.5-29.2       c0-16,12.1-29.7,28.3-29.7c7.2,0,14.1,2.8,19.5,7.4c0.9,0.9,2.3,0.9,3.2,0l7.7-7.9c0.9-0.9,0.9-2.6-0.2-3.5       c-8.6-7.7-17.9-11.8-30.6-11.8c-25.3,0-45.9,20.4-45.9,45.9c0,25.3,20.4,45.5,45.9,45.5c11.4,0,22.3-3.9,30.9-12.3       c0.9-0.9,1.2-2.6,0.2-3.5L529.5,105.7z"></path>
				</g>
				<g>
					<path class="st0" d="M589.6,38.2c-25.3,0-45.5,20.4-45.5,45.9c0,25.3,20.2,45.5,45.5,45.5c25.3,0,45.7-20.2,45.7-45.5       C635.3,58.6,614.8,38.2,589.6,38.2z M589.6,113.1c-16,0-29-13-29-29s13-29.2,29-29.2s29.2,13.2,29.2,29.2       C618.6,100.1,605.6,113.1,589.6,113.1z"></path>
				</g>
				<g>
					<path class="st0" d="M721.8,39.6h-11.6c-1.4,0-2.3,1.2-2.3,2.3v52.4h-0.2l-52.9-56.1h-3.2c-1.2,0-2.3,0.9-2.3,2.3v85.4       c0,1.2,1.2,2.3,2.3,2.3h11.6c1.4,0,2.3-1.2,2.3-2.3V71.3h0.2l53.1,58.2h3c1.2,0,2.3-0.9,2.3-2.3V41.9       C724.1,40.7,722.9,39.6,721.8,39.6z"></path>
				</g>
				<g>
					<path class="st0" d="M772.6,39.6h-30.2c-1.2,0-2.3,1.2-2.3,2.3v84c0,1.2,0.9,2.3,2.3,2.3h30.2c24.6,0,44.5-19.9,44.5-44.5       C817.1,59.5,797.2,39.6,772.6,39.6z M771.2,112.9h-14.6v-58H771c16.5,0,28.5,12.5,28.5,29C799.7,100.3,787.7,112.9,771.2,112.9       z"></path>
				</g>
				<g>
					<path class="st0" d="M902,125.4L862.8,40c-0.5-0.7-0.9-1.4-2.1-1.4h-1.2c-1.2,0-1.9,0.7-2.1,1.4L818,125.4       c-0.7,1.6,0.2,3.2,2.1,3.2h11.1c2.1,0,3.2-1.2,3.7-2.6l6.3-13.7h38l6.3,13.7c0.9,1.9,1.9,2.6,3.7,2.6h11.1       C901.8,128.4,902.7,127,902,125.4z M847.3,98l12.5-27.8h0.5L873,98H847.3z"></path>
				</g>
				<g>
					<g>
						<path class="st0" d="M917.8,127h0.7c0.2,0,0.5-0.2,0.5-0.5v-2.3h1.4l0.9,2.6c0,0.2,0.2,0.2,0.5,0.2h0.9c0.2,0,0.5-0.2,0.5-0.5        c-0.5-0.7-0.7-1.6-1.2-2.3c0.7-0.2,1.6-0.9,1.6-2.3c0-1.6-1.2-2.6-2.6-2.6h-3c-0.2,0-0.5,0.2-0.5,0.5v6.7        C917.6,127,917.6,127,917.8,127z M919,120.8h1.9c0.7,0,0.9,0.5,0.9,0.9c0,0.5-0.5,0.9-0.9,0.9H919V120.8z"></path>
					</g>
					<g>
						<path class="st0" d="M920.1,130.7c4.2,0,7.4-3.2,7.4-7.4s-3.5-7.4-7.4-7.4c-4.2,0-7.4,3.5-7.4,7.4S915.9,130.7,920.1,130.7z         M920.1,117c3.2,0,6,2.8,6,6c0,3.2-2.8,6-6,6s-6-2.8-6-6C914.1,119.8,916.9,117,920.1,117z"></path>
					</g>
				</g>
			</g>
			<g>
				<path class="st1" d="M34,125.2v-0.5c0-4.6,0.5-9,1.2-13.5v-0.5l-0.5-0.2c-4.2-1.6-8.1-3.9-12.1-6l-0.5-0.2l-0.2,0.5      c-2.6,5.1-4.6,10.7-6.5,16.2l-0.2,0.5l0.5,0.2c5.8,1.6,11.6,2.8,17.6,3.2L34,125.2z"></path>
				<path class="st1" d="M46.1,45.6C46.1,45.4,46.1,45.4,46.1,45.6c-3.5,0-6.7,0.2-10.2,0.5c0.5,3.5,0.9,6.7,1.9,10.2      C40,52.3,42.8,48.6,46.1,45.6z"></path>
				<path class="st1" d="M34,129.3v-0.5h-0.5c-4.9-0.5-10-1.4-15.1-2.6l-1.4-0.2l0.7,1.2c4.4,6.7,10,12.8,16.5,18.1l0.9,0.9v-1.6      C34.5,139.3,34,134,34,129.3z"></path>
				<path class="st1" d="M58.4,9.2c-6,2.1-11.8,4.9-17.2,8.4c3.9,0.7,7.9,1.6,11.8,2.8C54.6,16.6,56.3,12.9,58.4,9.2z"></path>
				<path class="st1" d="M83.6,5c-3,0-6,0.2-8.8,0.5c4.2,2.8,8.1,6,11.8,9.5l3,2.8l-3,3c-2.6,2.3-5.1,5.1-7.4,7.9v0.2      c0,0-0.5,0.5-1.2,1.4c1.9-0.2,3.7-0.2,5.6-0.2c29.5,0,53.4,23.9,53.4,53.4s-23.9,53.4-53.4,53.4c-10.2,0-19.7-2.8-27.8-7.9      c-3.9,0.5-8.1,0.7-12.1,0.7c-1.9,0-3.7,0-5.6-0.2c0.2,6,0.7,12.3,1.6,18.8c12.5,8.6,27.6,13.5,43.8,13.5      c43.4,0,78.4-35,78.4-78.4C162,40,127,5,83.6,5z"></path>
				<path class="st1" d="M73.2,23.6c1.6-1.9,3.2-3.7,4.9-5.3c-3.7-3-7.7-6-11.6-8.6c-2.6,4.2-4.6,8.6-6.5,13c3.5,1.4,7,2.8,10.4,4.4      C71.8,25.2,73,23.8,73.2,23.6z"></path>
				<path class="st1" d="M20.1,68.3l0.2,0.5l0.5-0.2c3.7-2.6,7.4-5.1,11.4-7.2l0.5-0.2v-0.5c-1.2-4.4-2.1-9-2.6-13.7v-0.5h-0.5      c-5.8,1.2-11.6,2.6-16.9,4.6l-0.5,0.2l0.2,0.5C14,57.4,16.8,63,20.1,68.3z"></path>
				<path class="st1" d="M19.1,75.7l-0.5,0.5c-4.2,3.5-8.1,7.2-11.8,11.4L6.4,88l0.5,0.5c4.2,3.5,8.4,6.7,13,9.7l0.5,0.2l0.2-0.5      c2.1-3.7,4.4-7.2,7-10.7l0.2-0.5l-0.2-0.2c-2.8-3.2-5.6-6.5-8.1-10.2L19.1,75.7z"></path>
				<path class="st1" d="M50,125.4h1.4l-1.2-0.9c-4.2-3.5-7.9-7.4-10.7-12.1v-0.2l-0.9-0.5v0.7c-0.5,3.9-0.9,8.1-0.9,12.3v0.5h0.5      c1.9,0,3.7,0.2,5.6,0.2C45.8,125.4,47.9,125.4,50,125.4z"></path>
				<path class="st1" d="M47.4,38.6c0.9-3.9,1.9-7.7,3.2-11.4c-4.9-1.4-10-2.6-15.1-3.2c-0.5,5.3-0.5,10.2-0.2,15.3      C39.3,38.9,43.3,38.6,47.4,38.6z"></path>
				<path class="st1" d="M54.9,38.4c3.5-2.1,7.2-3.9,10.9-5.3c-2.8-1.4-5.6-2.6-8.4-3.5C56.5,32.4,55.6,35.4,54.9,38.4z"></path>
				<path class="st1" d="M18.5,102H18c-3.9-2.6-7.9-5.3-11.6-8.4l-1.2-0.9l0.2,1.4c0.9,7.4,3,14.8,6.3,21.8l0.5,1.2l0.5-1.2      c1.6-4.4,3.5-8.8,5.6-13L18.5,102z"></path>
				<path class="st1" d="M28.4,27.7c-4.6,4.6-8.8,10-12.1,15.5c3.9-1.2,8.1-2.1,12.3-3C28.4,36.1,28.4,31.9,28.4,27.7z"></path>
				<path class="st1" d="M30.7,82.7v-1.4c0.2-4.9,0.9-9.5,2.3-13.9l0.5-1.4l-1.2,0.7c-3,1.9-6,3.7-9,5.8l-0.5,0.2l0.7,0.5      c2.1,2.8,4.2,5.8,6.5,8.4L30.7,82.7z"></path>
				<path class="st1" d="M31.4,90.8l-0.2-1.4l-0.7,1.2c-2.1,3-4.2,6.3-6,9.5l-0.2,0.5l0.5,0.2c3.2,1.9,6.7,3.5,10.2,5.1l1.2,0.5      l-0.5-1.2C33.5,100.8,32.1,95.7,31.4,90.8z"></path>
				<path class="st1" d="M16.1,72l0.5-0.2l-0.2-0.5c-2.6-3.9-4.6-8.1-6.7-12.3l-0.5-1.2l-0.5,1.4c-2.3,7.2-3.5,14.4-3.7,22v1.4      l0.9-0.9C8.9,78.1,12.4,74.8,16.1,72z"></path>
			</g>
		</g>
	</g>
</g>
</svg>
